<svg width="361" height="60" viewBox="0 0 361 60" fill="none" xmlns="http://www.w3.org/2000/svg">
<g clip-path="url(#clip0_82_2477)">
<path d="M59.0709 58.3288C63.8167 54.484 68.4779 50.524 73.3694 46.8723C74.5008 46.0288 76.4147 46.0289 77.973 46.0085C80.6017 45.9747 81.8008 44.8127 81.7941 42.2179C81.7703 34.3454 81.8889 26.4729 81.6755 18.6072C81.6314 16.9778 80.7744 14.5524 79.5888 14.0003C78.4167 13.4549 76.0116 14.3763 74.7379 15.3959C57.4008 29.2845 40.1924 43.3324 22.8655 57.2312C21.5545 58.2847 19.6034 58.9792 17.9164 59.0469C12.2695 59.2705 6.60561 59.1316 0.00341797 59.1316C2.34755 57.1567 4.01419 55.7001 5.73164 54.3112C26.3444 37.6719 46.9945 21.0665 67.5599 4.3561C70.1208 2.27619 72.6648 1.2193 76.032 1.36157C82.0176 1.61902 88.0202 1.43271 94.3616 1.43271C94.4395 2.80464 94.5614 3.91573 94.5614 5.02682C94.575 21.2325 94.5276 37.4382 94.6089 53.6439C94.6258 56.8383 93.5249 58.9961 90.2153 59.0368C79.9343 59.1587 69.6499 59.0808 59.3656 59.0808C59.2673 58.8301 59.1691 58.5795 59.0742 58.3254L59.0709 58.3288Z" fill="black"/>
<path d="M198.415 21.5034C204.455 24.4268 202.463 29.5419 202.863 34.2911H193.375C193.202 34.01 192.999 33.8304 192.982 33.634C192.555 28.5821 189.768 26.0562 184.621 26.0562C180.814 26.0562 177.006 26.0562 172.836 26.0562C172.714 28.8474 172.603 31.4389 172.477 34.2708H162.843V1.38517C173.788 1.38517 184.533 1.1616 195.261 1.48341C200.329 1.63584 202.46 4.09515 202.876 9.24073C203.246 13.8003 204.028 18.6918 198.412 21.5034H198.415ZM172.823 17.6688C178.815 17.6688 184.438 17.7467 190.058 17.6315C192.335 17.5841 193.097 16.0021 193.114 13.8409C193.131 11.8017 192.782 9.81999 190.455 9.73869C184.635 9.53883 178.805 9.67094 172.823 9.67094V17.6688Z" fill="black"/>
<path d="M245.396 21.4661C251.669 24.4674 249.657 29.5418 250.077 34.2403H240.551C240.416 33.976 240.158 33.6915 240.135 33.3866C239.728 28.5019 237.118 26.0595 232.303 26.0595C228.6 26.0595 224.895 26.0798 221.192 26.1035C220.972 26.1035 220.755 26.2221 220.115 26.405V34.2775H210.03V1.2564C215.413 1.2564 220.589 1.2564 225.765 1.2564C230.86 1.2564 235.958 1.13107 241.046 1.28689C247.462 1.48336 250.033 4.16286 250.131 10.572C250.196 14.6945 250.931 19.1389 245.399 21.4695L245.396 21.4661ZM220.274 17.6552C226.073 17.6552 231.703 17.7602 237.327 17.6078C239.833 17.54 240.341 15.6498 240.369 13.4276C240.399 10.9717 239.274 9.68445 236.93 9.60315C233.587 9.48458 230.24 9.54895 226.893 9.54217C221.954 9.53314 219.748 12.2386 220.274 17.6586V17.6552Z" fill="black"/>
<path d="M323.592 34.3861V1.53101H359.367V8.82086H333.911V14.3289H357.968V21.1648H333.958C333.85 23.011 333.761 24.5387 333.643 26.6119H359.862V34.3861H323.596H323.592Z" fill="black"/>
<path d="M158.984 34.5214C156.376 34.5214 154.503 34.3148 152.694 34.5655C149.164 35.0499 146.742 34.1082 145.475 30.4903C145.187 29.6672 143.588 28.8474 142.572 28.8169C137.254 28.6543 131.925 28.6272 126.61 28.8474C125.428 28.8982 123.639 29.8975 123.267 30.8901C122.071 34.0777 119.991 34.9246 116.861 34.5824C114.815 34.3588 112.725 34.5418 110.164 34.5418C110.747 33.2444 111.099 32.3196 111.563 31.4524C116.519 22.1707 121.532 12.9195 126.427 3.60394C127.352 1.84245 128.531 1.45628 130.442 1.14125C138.253 -0.142608 142.846 2.67577 145.997 10.1655C149.466 18.4038 154.381 26.0358 158.991 34.5282L158.984 34.5214ZM140.75 21.3543C138.466 17.059 136.512 13.3768 134.252 9.12214C132.023 13.5462 130.147 17.2826 128.097 21.3543H140.75Z" fill="black"/>
<path d="M295.879 25.9851C299.697 18.6343 303.304 12.0693 306.516 5.31809C307.989 2.21516 309.727 0.616274 313.297 1.19215C315.191 1.49702 317.173 1.24634 319.402 1.24634C319.178 2.04918 319.124 2.61489 318.877 3.08236C313.738 12.7773 308.535 22.4384 303.464 32.1672C302.532 33.9524 301.353 34.3454 299.439 34.6232C292.458 35.636 287.966 33.6747 285.11 26.561C282.031 18.8883 277.495 11.7983 273.606 4.44751C273.135 3.55999 272.756 2.62505 272.129 1.27006C275.622 1.27006 278.711 1.08375 281.757 1.38184C282.664 1.46992 283.704 2.7741 284.233 3.76324C288.04 10.8702 291.733 18.0415 295.876 25.9885L295.879 25.9851Z" fill="black"/>
<path d="M257.963 1.44629H267.756C267.756 6.91707 267.756 12.3235 267.756 17.7265C267.756 23.1295 267.756 28.5698 267.756 34.2608H257.963V1.44629Z" fill="black"/>
<path d="M64.2229 46.3505C59.0875 50.5205 54.4737 54.3213 49.7787 58.0204C49.0301 58.6098 47.9258 59.0095 46.9773 59.0299C42.1467 59.1315 37.3128 59.0773 31.4592 59.0773C34.4267 56.6248 37.0757 55.0191 38.9659 52.7766C45.7205 44.7686 54.5449 45.3174 64.2229 46.3539V46.3505Z" fill="black"/>
<path d="M190.864 48.688C187.29 43.1088 181.965 46.0864 177.372 45.4936C177.158 45.4665 176.887 45.541 176.711 45.6664C173.3 48.0749 175.204 51.6249 175.082 54.6262C175.045 55.5815 177.138 57.2549 178.456 57.492C181.034 57.9527 183.754 57.7055 186.41 57.6106C189.011 57.5191 190.139 56.198 189.418 53.4068C186.941 53.2475 184.543 53.0951 182.148 52.9393C182.162 52.6141 182.175 52.2889 182.189 51.9637H191.216C192.663 56.8857 190.942 59.3619 185.82 59.4365C183.161 59.4771 180.495 59.5415 177.843 59.406C174.719 59.2468 173.063 57.5191 172.795 54.3451C171.986 44.8229 173.043 43.6169 182.467 43.6305C184.313 43.6305 186.193 43.5289 187.998 43.8304C190.742 44.291 191.481 45.5851 190.861 48.6846L190.864 48.688Z" fill="black"/>
<path d="M360.014 48.6169C357.28 45.4428 350.431 44.0201 347.064 45.7443C346.322 46.1237 345.468 47.4482 345.621 48.1189C345.817 48.9895 346.908 50.1819 347.731 50.2869C350.238 50.6019 352.799 50.4461 355.339 50.5037C359.608 50.6019 361.02 51.6927 361 54.8363C360.98 57.9087 359.357 59.3111 355.404 59.4263C352.751 59.5042 350.069 59.5652 347.44 59.2739C344.262 58.9216 343.375 57.3735 344.418 54.0538C347.284 59.904 352.335 56.9433 356.511 57.3125C357.264 57.3803 358.175 55.6222 359.015 54.7042C358.077 53.9318 357.209 52.6209 356.186 52.4888C353.226 52.0992 350.201 52.2483 347.206 52.0586C344.689 51.8993 343.642 50.4055 343.585 47.9055C343.524 45.2667 344.933 43.9422 347.267 43.7999C350.485 43.6034 353.741 43.5763 356.948 43.8642C359.238 44.0709 361.02 45.226 360.011 48.6169H360.014Z" fill="black"/>
<path d="M227.929 53.3866C228.529 57.5261 230.849 57.6785 233.403 57.5464C235.368 57.4448 237.421 57.831 239.274 57.3669C240.378 57.0891 241.171 55.5851 242.106 54.6332C241.134 53.8913 240.229 52.6481 239.179 52.5093C236.327 52.1332 233.407 52.2857 230.524 52.1095C227.906 51.9469 226.554 50.4802 226.584 47.8108C226.612 45.2634 228.028 43.8678 230.429 43.7865C233.769 43.6713 237.15 43.5968 240.456 43.983C243.281 44.3116 243.732 45.443 242.821 48.4849C239.843 43.3834 235.165 45.5277 231.07 45.5649C230.243 45.5717 229.43 47.2891 228.61 48.2173C229.477 48.9693 230.284 50.2634 231.229 50.3751C233.857 50.68 236.544 50.4463 239.203 50.5208C241.855 50.5953 243.928 51.2593 244.037 54.6163C244.138 57.8005 242.434 59.1148 239.697 59.3045C236.703 59.5112 233.668 59.5721 230.683 59.3045C227.35 59.003 226.225 57.079 227.929 53.39V53.3866Z" fill="black"/>
<path d="M146.78 59.443C136.363 60.1002 136.915 57.1598 137.698 47.1329C137.796 45.8694 140.215 44.0096 141.752 43.7895C145.252 43.2915 148.873 43.5422 152.437 43.6844C155.13 43.7928 156.63 45.3477 156.769 48.1017C156.779 48.3321 156.793 48.5624 156.806 48.7928C157.335 58.735 156.668 59.443 146.78 59.443ZM147.22 57.5392C155.069 57.5392 155.126 57.4783 154.848 49.6024C154.842 49.372 154.838 49.1383 154.835 48.9079C154.818 46.4859 153.575 45.2867 151.176 45.2732C148.399 45.2562 145.577 44.9717 142.864 45.3816C141.617 45.5679 139.862 46.95 139.561 48.1051C137.671 55.4085 139.432 57.5392 146.871 57.5392C146.986 57.5392 147.101 57.5392 147.22 57.5392Z" fill="black"/>
<path d="M327.363 54.162C328.054 57.7019 327.119 59.2195 323.894 59.3821C320.662 59.5447 317.414 59.4261 314.172 59.4058C313.715 59.4058 313.206 59.3719 312.814 59.1721C307.759 56.5942 309.944 51.9195 309.761 48.0273C309.623 45.0565 311.709 43.732 314.504 43.6541C317.512 43.5694 320.53 43.4948 323.532 43.6541C326.848 43.8302 327.925 45.4697 326.892 48.9216C323.84 42.814 318.518 46.1811 314.162 45.4697C314.053 45.4528 313.918 45.4799 313.823 45.5341C309.944 47.7089 312.211 51.3673 311.926 54.3246C311.831 55.3036 313.549 57.2412 314.633 57.397C317.576 57.8239 320.672 57.851 323.609 57.3869C324.917 57.1802 325.977 55.4154 327.363 54.1654V54.162Z" fill="black"/>
<path d="M266.602 59.1755V45.7882C263.705 45.5612 261.307 45.3749 258.905 45.1886C258.926 44.8566 258.946 44.5246 258.97 44.196H275.992L276.043 45.2123C273.729 45.3613 271.412 45.5104 268.285 45.7136V59.294C267.723 59.2534 267.164 59.2127 266.602 59.1755Z" fill="black"/>
<path d="M110.835 57.4514H122.542C122.579 57.8613 122.616 58.2678 122.654 58.6776C121.244 58.8267 119.839 59.1011 118.429 59.1078C112.178 59.1417 109.056 56.0422 109.063 49.8092C109.07 47.8174 109.212 45.8255 109.29 43.8303C109.805 43.8405 110.32 43.854 110.835 43.8642V57.4514Z" fill="black"/>
<path d="M208.719 59.8157V43.8472C210.603 45.3986 210.887 56.3503 208.719 59.8157Z" fill="black"/>
<path d="M292.691 43.5017V59.6566C290.655 56.4995 290.733 45.8018 292.691 43.5017Z" fill="black"/>
</g>
<defs>
<clipPath id="clip0_82_2477">
<rect width="361" height="58.9794" fill="white" transform="translate(0 0.836426)"/>
</clipPath>
</defs>
</svg>
