<svg width="202" height="190" viewBox="0 0 202 190" fill="none" xmlns="http://www.w3.org/2000/svg">
<g clip-path="url(#clip0_79_2364)">
<path d="M200.004 188.959H52.0654C52.6111 186.733 52.98 184.712 53.6062 182.777C56.6098 173.5 59.6862 164.246 62.7314 154.985C63.1185 153.809 63.4407 152.613 63.8694 151.453C65.0941 148.138 67.4403 146.483 70.9081 146.49C112.73 146.49 154.549 146.514 196.371 146.433C199.131 146.428 200.102 147.073 200.063 150.001C199.905 162.015 200.001 174.03 200.001 186.046C200.001 186.912 200.001 187.778 200.001 188.959H200.004ZM113.676 179.578C116.472 182.78 121.897 182.124 123.154 178.564C123.762 176.839 123.845 174.881 123.903 173.021C124.012 169.336 123.934 165.645 123.934 161.934C122.705 162.009 121.593 162.353 120.647 162.093C116.638 160.987 114.848 161.661 113.055 165.229C111.688 167.95 112.636 173.495 115.136 174.642C116.991 175.492 119.322 175.302 121.728 175.614C122.45 178.699 121.819 179.092 113.681 179.58L113.676 179.578ZM108.879 168.818C108.898 164.098 106.853 161.632 102.932 161.65C99.3073 161.666 97.2001 164.342 97.1923 168.938C97.1871 172.761 99.7698 175.794 103.046 175.807C106.868 175.822 108.861 173.435 108.879 168.821V168.818ZM176.718 173.396C176.603 173.869 176.487 174.345 176.372 174.818C177.931 175.146 179.482 175.703 181.052 175.755C184.419 175.867 186.664 174.012 186.347 171.032C186.1 168.699 184.154 167.796 181.766 167.456C180.696 167.302 179.072 165.848 179.02 164.909C178.929 163.297 180.472 162.628 182.177 162.792C183.208 162.891 184.258 162.81 185.3 162.81C185.282 162.449 185.264 162.09 185.248 161.729C183.258 161.729 181.226 161.484 179.285 161.791C176.884 162.171 175.741 165.406 177.383 167.193C178.373 168.27 179.82 169.143 181.226 169.554C182.808 170.017 184.396 170.267 183.967 172.309C183.556 174.267 181.161 175.136 179.194 174.322C178.381 173.986 177.547 173.703 176.723 173.393L176.718 173.396ZM142.977 163.7C143.018 163.06 143.075 162.358 143.062 162.355C141.093 162.158 139.056 161.663 137.172 162.012C136.283 162.176 135.26 163.887 135.06 165.032C134.558 167.866 135.522 168.571 140.217 169.856C140.919 170.049 141.981 170.785 141.981 171.271C141.981 172.184 141.563 173.57 140.898 173.895C139.939 174.366 138.598 174.129 137.427 174.067C136.684 174.028 135.956 173.752 135.221 173.583C136.808 176.592 139.456 176.098 141.597 175.526C143.405 175.042 144.704 173.302 144.356 170.967C143.972 168.384 142.111 167.918 139.981 167.536C138.401 167.253 136.907 166.527 137.268 164.459C137.648 162.293 139.409 162.852 140.797 162.904C141.423 162.927 142.033 163.336 142.979 163.695L142.977 163.7ZM173.995 173.45C171.103 173.911 167.894 175.06 167.034 171.424C166.452 168.969 165.88 165.978 168.333 164.051C169.282 163.307 170.939 163.468 172.67 163.141C172.644 163.065 172.628 162.181 172.207 161.903C170.854 160.998 167.083 161.903 166.091 163.255C163.978 166.129 164.038 169.469 164.95 172.545C166.093 176.402 170.999 176.985 173.992 173.45H173.995ZM91.2267 155.588C90.8603 155.765 90.494 155.944 90.1276 156.121C90.1276 161.911 90.112 167.697 90.1354 173.487C90.1458 175.945 91.6008 176.004 93.1364 175.606C92.8324 173.817 92.3751 172.254 92.3335 170.681C92.227 166.452 92.3543 162.215 92.253 157.986C92.2322 157.18 91.5852 156.386 91.2267 155.588ZM147.651 162.176C148.129 163.494 148.856 164.764 149.01 166.095C149.241 168.127 149.041 170.202 149.075 172.259C149.129 175.687 150.119 176.337 154.102 175.198C148.895 173.848 150.538 169.892 150.636 166.795C150.688 165.164 152.008 163.572 152.767 161.937C151.395 161.794 149.397 161.299 151.073 158.056C150.018 158.537 149.446 159.091 149.018 159.739C148.477 160.556 148.051 161.448 147.651 162.176ZM129.175 175.619C130.456 175.247 130.89 170.702 130.476 161.986C128.793 162.441 128.187 168.452 129.175 175.619ZM159.647 162.069C159.276 162.009 158.904 161.95 158.532 161.89C158.286 162.813 157.854 163.734 157.828 164.665C157.743 167.723 157.737 170.79 157.857 173.846C157.886 174.553 158.527 175.235 158.888 175.929C159.14 175.802 159.395 175.674 159.647 175.547V162.072V162.069ZM131.975 157.052C130.939 156.464 130.258 155.77 129.816 155.897C129.149 156.09 128.647 156.857 128.075 157.38C128.644 157.918 129.211 158.875 129.783 158.878C130.367 158.881 130.96 157.95 131.975 157.05V157.052Z" fill="black"/>
<path d="M130.926 14.1348C129.278 19.3339 127.698 24.3378 126.108 29.3392C125.15 32.3561 124.108 35.3471 123.232 38.3874C122.796 39.9063 123.385 40.8504 125.168 40.8166C127.909 40.7646 130.653 40.8036 134.106 40.8036C133.03 44.6398 132.071 48.0676 131.035 51.7608C126.906 52.0443 122.767 52.3304 118.994 52.5905C117.227 58.008 115.601 62.8299 114.084 67.6856C112.343 73.2565 110.719 78.8639 109.004 84.4426C107.229 90.2112 105.364 95.9512 103.612 101.728C101.799 107.707 99.9878 113.691 98.3925 119.73C98.0911 120.87 98.603 123.27 99.1122 123.382C100.679 123.725 102.968 123.866 104.005 122.966C108.144 119.374 111.917 115.359 116.087 111.244C119.264 112.209 119.072 113.377 117.355 115.993C112.098 123.998 105.52 130.638 96.5685 134.066C90.3898 136.433 83.6966 137.25 77.4556 133.419C74.3376 131.504 72.4513 128.919 72.2928 125.083C72.0434 119.049 73.6439 113.444 75.5744 107.824C77.4478 102.373 78.8846 96.7705 80.6229 91.2724C82.4365 85.5298 84.4475 79.8496 86.2508 74.1044C88.028 68.4346 89.6467 62.7128 91.3538 57.0196C91.5175 56.4709 91.7903 55.9507 92.0189 55.4201C93.0271 53.0664 92.1021 51.8856 89.5532 52.0729C87.0848 52.2524 84.6008 52.3642 82.1325 52.2628C81.5894 52.2394 80.7294 51.2432 80.6333 50.6034C80.2279 47.8882 81.8207 44.6944 84.2475 43.8465C99.6916 38.4498 111.758 28.3093 122.595 16.5042C124.851 14.0464 127.197 13.2453 130.936 14.1348H130.926Z" fill="black"/>
<path d="M124.256 136.105C125.976 124.521 127.574 113.767 129.203 102.791H132.015C134.61 108.687 136.681 114.823 139.88 120.295C144.063 127.45 150.597 131.541 159.245 130.927C168.092 130.297 172.407 122.326 169.703 114.204C167.276 106.911 161.58 102.105 156.87 96.5181C152.037 90.7859 146.991 85.1812 142.693 79.0588C135.569 68.9131 137.554 55.2666 147.137 47.0506C151.299 43.4823 156.168 41.4017 161.705 40.9647C164.231 40.7645 166.8 39.8308 169.238 40.1299C174.972 40.8321 180.628 42.1663 186.342 43.0688C190.276 43.6904 194.277 44.3614 197.678 41.1806C198.367 40.5356 199.559 40.4316 200.521 40.0804C200.775 41.0375 201.318 42.0207 201.241 42.9491C200.838 47.7164 200.401 52.4863 199.736 57.2224C199.092 61.8154 198.154 66.3669 197.304 71.168C196.213 71.0041 195.28 70.8637 194.875 70.8039C192.921 65.6516 191.474 60.6581 189.177 56.0911C186.659 51.0897 181.964 48.1664 176.879 46.0935C170.947 43.6774 163.742 46.5045 161.549 52.2392C159.925 56.4864 161.721 60.3122 164.407 63.4826C169.49 69.4852 174.884 75.22 180.083 81.1265C184.084 85.6727 188.228 90.2631 190.026 96.1436C191.489 100.926 192.157 105.787 190.847 111.046C189.19 117.702 186.311 123.26 181.127 127.665C177.056 131.125 172.462 133.663 167.185 134.472C162.695 135.161 158.075 135.803 153.585 135.473C148.922 135.13 144.369 133.452 139.721 132.623C135.86 131.933 131.859 130.805 128.725 134.812C128.044 135.684 126.148 135.601 124.261 136.105H124.256Z" fill="black"/>
<path d="M27.5197 49.3552C26.9897 45.2511 29.8322 45.1263 32.1109 44.7829C38.6534 43.792 45.2296 43.0014 51.7903 42.1275C57.2648 41.3993 62.7368 40.6581 68.214 39.9454C68.6817 39.8856 69.1727 40.0027 70.1731 40.0729C69.6404 42.1561 69.2637 44.0599 68.6661 45.8909C66.0392 53.904 63.2591 61.8677 60.705 69.9042C58.1482 77.9459 55.8747 86.0813 53.3258 94.1256C50.7847 102.139 47.9344 110.053 45.5076 118.097C45.0113 119.746 45.796 121.78 45.9883 123.637C47.9838 123.281 50.5249 123.572 51.8656 122.441C55.3499 119.499 58.3691 115.988 61.4325 112.578C62.212 111.71 62.3627 110.407 63.9944 111.46C65.53 112.451 65.9898 113.775 64.9895 115.099C62.2301 118.747 59.6656 122.698 56.2697 125.663C52.5386 128.924 48.2384 131.876 43.6914 133.783C37.2555 136.48 30.3207 137.343 23.9393 133.208C21.05 131.335 19.2156 128.534 19.0364 124.854C18.7635 119.309 20.242 114.209 22.2946 109.114C23.9731 104.945 24.9552 100.498 26.3479 96.2062C28.4993 89.5794 30.8689 83.0201 32.906 76.3568C34.8391 70.0264 36.6241 63.6414 38.1779 57.2096C39.4666 51.8754 35.4991 49.0977 30.8144 49.35C29.7465 49.4072 28.676 49.3578 27.5223 49.3578L27.5197 49.3552Z" fill="black"/>
<path d="M113.676 179.58C121.816 179.091 122.448 178.699 121.723 175.614C119.317 175.302 116.986 175.492 115.131 174.641C112.634 173.494 111.683 167.949 113.05 165.229C114.842 161.661 116.635 160.987 120.642 162.092C121.588 162.353 122.702 162.012 123.929 161.934C123.929 165.645 124.004 169.336 123.897 173.021C123.843 174.881 123.76 176.839 123.149 178.563C121.892 182.124 116.466 182.782 113.671 179.578L113.676 179.58ZM122.468 168.6C121.91 167.13 121.658 165.385 120.683 164.29C120.055 163.585 118.14 163.323 117.186 163.741C113.933 165.164 114.757 168.293 115.024 170.865C115.128 171.866 116.461 173.281 117.485 173.549C120.72 174.394 121.907 172.99 122.471 168.6H122.468Z" fill="#F8CF14"/>
<path d="M108.877 168.818C108.859 173.432 106.866 175.82 103.044 175.804C99.7675 175.791 97.1822 172.758 97.19 168.935C97.1978 164.34 99.305 161.666 102.93 161.648C106.85 161.63 108.895 164.095 108.877 168.816V168.818ZM106.609 168.795C106.609 168.795 106.598 168.795 106.593 168.795C106.593 168.012 106.895 167.024 106.533 166.483C105.668 165.198 104.67 163.617 103.371 163.156C102.587 162.878 100.334 164.314 100.152 165.255C99.7103 167.513 99.8168 169.994 100.295 172.259C100.487 173.167 102.693 174.582 103.2 174.309C104.561 173.578 105.595 172.129 106.557 170.816C106.884 170.368 106.609 169.481 106.609 168.795Z" fill="#F8CF14"/>
<path d="M176.715 173.396C177.539 173.702 178.376 173.986 179.186 174.324C181.153 175.136 183.549 174.269 183.959 172.311C184.388 170.269 182.8 170.02 181.218 169.557C179.815 169.146 178.365 168.272 177.375 167.195C175.733 165.408 176.876 162.173 179.277 161.793C181.221 161.486 183.25 161.731 185.24 161.731C185.258 162.092 185.277 162.451 185.292 162.813C184.25 162.813 183.201 162.894 182.169 162.795C180.462 162.631 178.921 163.299 179.012 164.912C179.064 165.851 180.688 167.304 181.759 167.458C184.146 167.799 186.092 168.701 186.339 171.034C186.656 174.017 184.411 175.869 181.044 175.757C179.475 175.705 177.923 175.149 176.365 174.821C176.479 174.347 176.596 173.872 176.71 173.398L176.715 173.396Z" fill="#F8CF14"/>
<path d="M142.974 163.7C142.028 163.341 141.418 162.935 140.791 162.909C139.404 162.855 137.642 162.298 137.263 164.465C136.902 166.53 138.396 167.258 139.976 167.541C142.109 167.924 143.967 168.389 144.351 170.972C144.699 173.307 143.4 175.047 141.592 175.531C139.451 176.103 136.803 176.597 135.216 173.588C135.951 173.757 136.681 174.03 137.421 174.072C138.593 174.134 139.931 174.368 140.893 173.9C141.558 173.575 141.979 172.186 141.976 171.276C141.976 170.79 140.914 170.054 140.212 169.861C135.517 168.576 134.553 167.872 135.054 165.037C135.257 163.892 136.281 162.184 137.167 162.017C139.048 161.669 141.088 162.163 143.057 162.36C143.07 162.36 143.013 163.065 142.971 163.705L142.974 163.7Z" fill="#F8CF14"/>
<path d="M173.992 173.45C170.999 176.985 166.093 176.402 164.95 172.545C164.038 169.468 163.981 166.126 166.091 163.255C167.083 161.905 170.853 161 172.207 161.903C172.625 162.184 172.644 163.065 172.67 163.141C170.939 163.468 169.281 163.307 168.333 164.051C165.878 165.978 166.452 168.972 167.034 171.424C167.894 175.06 171.103 173.908 173.995 173.45H173.992Z" fill="#F8CF14"/>
<path d="M91.224 155.588C91.5826 156.386 92.2296 157.18 92.2504 157.986C92.3517 162.215 92.2244 166.451 92.3309 170.68C92.3699 172.254 92.8272 173.817 93.1338 175.606C91.6008 176.004 90.1432 175.944 90.1328 173.487C90.1094 167.697 90.125 161.91 90.125 156.121C90.4913 155.944 90.8577 155.765 91.224 155.588Z" fill="#F8CF14"/>
<path d="M147.651 162.176C148.054 161.448 148.477 160.556 149.018 159.739C149.446 159.091 150.015 158.537 151.073 158.056C149.397 161.299 151.395 161.794 152.767 161.937C152.008 163.572 150.688 165.162 150.636 166.795C150.538 169.892 148.895 173.848 154.102 175.198C150.119 176.337 149.129 175.687 149.075 172.259C149.041 170.202 149.238 168.126 149.01 166.095C148.859 164.761 148.129 163.494 147.651 162.176Z" fill="#F8CF14"/>
<path d="M129.172 175.619C128.185 168.454 128.787 162.444 130.474 161.986C130.889 170.7 130.456 175.245 129.172 175.619Z" fill="#F8CF14"/>
<path d="M159.647 162.069V175.544C159.395 175.672 159.14 175.799 158.888 175.926C158.527 175.232 157.885 174.551 157.857 173.843C157.737 170.787 157.742 167.721 157.828 164.662C157.854 163.731 158.285 162.813 158.532 161.887C158.904 161.947 159.275 162.007 159.647 162.067V162.069Z" fill="#F8CF14"/>
<path d="M131.975 157.052C130.96 157.952 130.37 158.883 129.783 158.881C129.211 158.878 128.644 157.921 128.075 157.383C128.647 156.86 129.149 156.093 129.816 155.9C130.258 155.773 130.939 156.464 131.975 157.055V157.052Z" fill="#F8CF14"/>
<path d="M122.466 168.6C121.902 172.987 120.714 174.394 117.48 173.549C116.456 173.281 115.126 171.869 115.019 170.865C114.749 168.29 113.928 165.164 117.181 163.741C118.137 163.323 120.052 163.585 120.678 164.29C121.655 165.388 121.904 167.13 122.463 168.6H122.466Z" fill="black"/>
<path d="M106.609 168.798C106.609 169.484 106.884 170.371 106.557 170.818C105.595 172.129 104.561 173.58 103.2 174.311C102.69 174.584 100.487 173.169 100.295 172.262C99.8141 169.996 99.7102 167.515 100.152 165.258C100.336 164.316 102.589 162.881 103.371 163.159C104.67 163.622 105.671 165.201 106.533 166.485C106.897 167.024 106.593 168.012 106.593 168.798C106.598 168.798 106.603 168.798 106.609 168.798Z" fill="black"/>
<path d="M54.2973 32.4133C63.0507 32.4133 70.1468 25.3103 70.1468 16.5483C70.1468 7.78634 63.0507 0.68335 54.2973 0.68335C45.5438 0.68335 38.4478 7.78634 38.4478 16.5483C38.4478 25.3103 45.5438 32.4133 54.2973 32.4133Z" fill="#FCCD12"/>
<path d="M15.3231 146.069L0.772705 189.242L49.3605 188.722L62.5598 146.069H15.3231Z" fill="#F8CF14"/>
</g>
<defs>
<clipPath id="clip0_79_2364">
<rect width="200.475" height="188.559" fill="white" transform="translate(0.772705 0.68335)"/>
</clipPath>
</defs>
</svg>
